<svg width="17" height="17" viewBox="0 0 17 17" fill="none" xmlns="http://www.w3.org/2000/svg">
<circle cx="8.5" cy="8.5" r="7.5" stroke="#EE3230" stroke-opacity="0.4" stroke-width="2"/>
<path d="M6.27832 8.58691C6.31413 8.55111 6.36784 8.52507 6.43945 8.50879C6.51107 8.48926 6.59245 8.47949 6.68359 8.47949C6.7487 8.47949 6.79264 8.48112 6.81543 8.48438C6.83822 8.48763 6.85775 8.49414 6.87402 8.50391H7.61133C7.72201 8.50391 7.81641 8.49902 7.89453 8.48926C7.97591 8.47624 8.03125 8.45508 8.06055 8.42578C8.11589 8.37044 8.14355 8.25488 8.14355 8.0791L8.05078 6.93164C8.05078 6.84701 8.05729 6.76888 8.07031 6.69727C8.08333 6.62565 8.10775 6.57194 8.14355 6.53613C8.19564 6.49056 8.27702 6.46777 8.3877 6.46777C8.46257 6.46777 8.53418 6.47917 8.60254 6.50195C8.6709 6.52148 8.72298 6.54915 8.75879 6.58496L8.89551 6.88281C8.89876 6.88281 8.90202 6.88607 8.90527 6.89258C8.90853 6.89909 8.91178 6.91374 8.91504 6.93652C8.92155 6.95931 8.92643 6.99512 8.92969 7.04395C8.9362 7.08952 8.94434 7.15299 8.9541 7.23438C8.92806 7.24414 8.90202 7.26204 8.87598 7.28809C8.84993 7.32389 8.8304 7.35807 8.81738 7.39062C8.80762 7.42318 8.80273 7.46224 8.80273 7.50781C8.80273 7.58268 8.80762 7.66569 8.81738 7.75684C8.8304 7.84473 8.84505 7.92122 8.86133 7.98633C8.86784 8.0319 8.87109 8.0612 8.87109 8.07422C8.87435 8.08724 8.87598 8.10026 8.87598 8.11328C8.87598 8.16536 8.87272 8.21745 8.86621 8.26953C8.86296 8.32161 8.86133 8.36556 8.86133 8.40137C8.86133 8.40788 8.86296 8.41113 8.86621 8.41113C8.86621 8.41439 8.86784 8.41602 8.87109 8.41602C8.89062 8.4388 8.90365 8.4502 8.91016 8.4502C9.02083 8.4502 9.13639 8.43717 9.25684 8.41113C9.38053 8.38184 9.49284 8.36719 9.59375 8.36719C9.64583 8.36719 9.69141 8.37207 9.73047 8.38184C9.76953 8.3916 9.80697 8.40299 9.84277 8.41602H10.5947C10.6077 8.41602 10.6273 8.4209 10.6533 8.43066C10.6794 8.44043 10.6956 8.44694 10.7021 8.4502C10.7314 8.486 10.7461 8.53483 10.7461 8.59668V8.96777L10.6582 9.06055C10.5508 9.16797 10.4059 9.22168 10.2236 9.22168C10.0771 9.22168 9.92904 9.2054 9.7793 9.17285C9.62956 9.13704 9.49284 9.11589 9.36914 9.10938L9.25684 9.15332L8.9541 9.17773C8.93783 9.20703 8.92318 9.25098 8.91016 9.30957C8.89714 9.36491 8.88574 9.42839 8.87598 9.5C8.86621 9.57161 8.85807 9.64811 8.85156 9.72949C8.84831 9.80762 8.84668 9.88249 8.84668 9.9541C8.84668 10.029 8.84993 10.0957 8.85645 10.1543C8.86296 10.2129 8.87272 10.2682 8.88574 10.3203C8.89551 10.3496 8.90202 10.3773 8.90527 10.4033C8.90853 10.4294 8.91016 10.4489 8.91016 10.4619C8.91016 10.4749 8.90527 10.5042 8.89551 10.5498C8.889 10.5921 8.88574 10.6165 8.88574 10.623L8.90527 10.8574C8.90527 10.8965 8.90039 10.9274 8.89062 10.9502C8.88411 10.973 8.87435 10.9909 8.86133 11.0039C8.81576 11.0365 8.74251 11.0527 8.6416 11.0527C8.55697 11.0527 8.47721 11.043 8.40234 11.0234C8.32747 11.0039 8.27702 10.986 8.25098 10.9697C8.20866 10.8916 8.17936 10.8053 8.16309 10.7109C8.14681 10.6165 8.13542 10.5189 8.12891 10.418C8.1224 10.3138 8.11426 10.2096 8.10449 10.1055C8.09798 9.99805 8.08333 9.89388 8.06055 9.79297L8.1582 9.41699C8.1582 9.40072 8.15658 9.38444 8.15332 9.36816C8.15007 9.34863 8.1403 9.33073 8.12402 9.31445C8.09147 9.28516 8.05729 9.26237 8.02148 9.24609C7.98893 9.22982 7.94987 9.22168 7.9043 9.22168C7.84896 9.22168 7.79362 9.22819 7.73828 9.24121C7.6862 9.25423 7.6276 9.26074 7.5625 9.26074C7.51693 9.26074 7.48438 9.26074 7.46484 9.26074C7.44531 9.26074 7.42904 9.25911 7.41602 9.25586C7.40299 9.23307 7.36393 9.22168 7.29883 9.22168L7.18164 9.23145C7.12956 9.24447 7.07585 9.2526 7.02051 9.25586C6.96842 9.25911 6.91471 9.26074 6.85938 9.26074C6.80404 9.26074 6.75033 9.25911 6.69824 9.25586C6.64616 9.2526 6.59245 9.24447 6.53711 9.23145C6.48503 9.23145 6.44108 9.22656 6.40527 9.2168C6.37272 9.20378 6.33854 9.17448 6.30273 9.12891C6.27995 9.08984 6.26367 9.04753 6.25391 9.00195C6.2474 8.95312 6.24414 8.89616 6.24414 8.83105C6.25065 8.73014 6.25716 8.66667 6.26367 8.64062C6.27344 8.61133 6.27832 8.59342 6.27832 8.58691Z" fill="#EE3230" fill-opacity="0.4"/>
</svg>
